<?xml version="1.0" standalone="no"?>
<!DOCTYPE svg PUBLIC "-//W3C//DTD SVG 20010904//EN"
 "http://www.w3.org/TR/2001/REC-SVG-20010904/DTD/svg10.dtd">
<svg version="1.0" xmlns="http://www.w3.org/2000/svg"
 width="407.000000pt" height="407.000000pt" viewBox="0 0 407.000000 407.000000"
 preserveAspectRatio="xMidYMid meet">
<metadata>
Created by potrace 1.14, written by Peter Selinger 2001-2017
</metadata>
<g transform="translate(0.000000,407.000000) scale(0.100000,-0.100000)"
fill="#000000" stroke="none">
<path d="M1889 3961 c-34 -34 -38 -78 -11 -118 15 -24 17 -66 20 -430 2 -344
5 -403 17 -404 8 -1 21 -2 28 -3 29 -5 37 17 37 100 0 48 4 86 11 89 6 4 132
6 280 6 176 -1 276 2 289 9 30 16 25 54 -19 118 -50 75 -71 116 -71 142 0 26
31 87 77 153 19 27 37 60 39 73 8 43 -19 47 -314 48 -259 1 -274 2 -288 20
-15 21 -12 39 12 93 12 28 13 37 1 65 -27 64 -68 79 -108 39z"/>
<path d="M1180 2920 c-57 -12 -86 -27 -123 -65 -56 -58 -62 -94 -62 -415 0
-309 4 -336 53 -361 36 -17 1854 -22 1916 -5 22 7 48 23 60 39 20 27 21 40 21
310 0 155 -4 302 -9 327 -20 105 -108 170 -235 174 -126 5 -211 -40 -254 -134
-18 -38 -21 -67 -23 -193 -1 -82 -5 -159 -8 -173 -9 -33 -40 -46 -117 -51 -54
-3 -71 0 -90 16 -22 18 -23 24 -25 172 -1 164 -10 215 -46 270 -33 50 -122 91
-200 94 -129 4 -213 -39 -255 -132 -23 -50 -25 -68 -27 -212 -2 -138 -4 -160
-22 -183 -21 -30 -42 -38 -97 -38 -46 0 -92 22 -108 52 -8 14 -13 80 -14 178
-2 178 -15 224 -80 277 -57 48 -166 70 -255 53z"/>
<path d="M1900 1810 c-63 -8 -88 -25 -100 -68 -8 -26 -10 -264 -8 -774 l3
-738 28 -27 27 -28 145 0 c137 0 146 1 167 23 l23 23 3 752 c2 538 -1 760 -9
779 -19 45 -51 59 -147 62 -48 1 -107 -1 -132 -4z"/>
</g>
</svg>
