<?xml version="1.0" standalone="no"?>
<!DOCTYPE svg PUBLIC "-//W3C//DTD SVG 20010904//EN"
 "http://www.w3.org/TR/2001/REC-SVG-20010904/DTD/svg10.dtd">
<svg version="1.0" xmlns="http://www.w3.org/2000/svg"
 width="308.000000pt" height="308.000000pt" viewBox="0 0 308.000000 308.000000"
 preserveAspectRatio="xMidYMid meet">
<metadata>
Created by potrace 1.14, written by Peter Selinger 2001-2017
</metadata>
<g transform="translate(0.000000,308.000000) scale(0.100000,-0.100000)"
fill="#000000" stroke="none">
<path d="M1271 2970 c-278 -56 -510 -179 -706 -375 -88 -88 -205 -239 -205
-264 0 -5 -4 -11 -9 -13 -11 -4 -79 -149 -108 -231 -25 -73 -49 -167 -58 -232
-3 -22 -8 -51 -11 -64 -7 -35 -7 -250 1 -307 17 -122 53 -271 84 -339 5 -11
21 -46 35 -78 32 -71 32 -75 1 -87 -14 -5 -25 -15 -26 -22 -3 -33 1 -106 6
-135 5 -30 9 -33 38 -30 l32 2 3 -100 c3 -112 15 -137 60 -129 43 8 49 26 48
133 l-1 100 62 -67 c35 -37 66 -78 69 -92 4 -14 13 -38 21 -53 12 -24 20 -28
48 -26 26 3 51 -7 109 -45 l76 -49 0 -63 0 -64 49 0 c34 0 51 4 55 15 4 12 -3
15 -29 15 -47 0 -47 25 1 33 48 8 64 0 64 -34 0 -22 5 -29 19 -29 13 0 21 8
23 22 l3 23 22 -24 c14 -15 29 -22 42 -18 11 2 50 -4 87 -14 107 -30 251 -46
380 -43 104 3 167 12 344 50 14 3 36 11 49 17 19 9 25 9 28 0 3 -7 15 -13 29
-13 17 0 22 4 18 15 -5 11 1 15 24 15 23 0 36 8 52 30 12 17 26 30 31 30 6 0
8 -3 5 -8 -10 -16 23 -71 48 -78 37 -9 80 9 90 38 12 34 0 75 -24 83 -11 3
-20 9 -19 13 0 4 37 33 82 64 45 31 112 87 149 123 l66 66 25 -55 c70 -153
220 -80 219 108 0 60 -27 159 -47 176 -20 17 -20 20 20 102 61 125 106 285
122 433 12 110 6 293 -13 385 -29 141 -52 213 -111 340 -121 264 -367 511
-636 639 -79 37 -239 93 -302 106 -16 3 -41 8 -55 11 -14 4 -106 8 -205 9
-146 3 -198 0 -274 -15z m1404 -2102 c34 -82 15 -199 -29 -182 -16 6 -36 69
-36 113 0 25 36 100 48 101 2 0 9 -15 17 -32z m-435 -448 c9 -17 7 -22 -14
-32 -34 -15 -61 5 -45 33 13 25 45 24 59 -1z"/>
<path d="M2883 517 c-13 -5 -23 -14 -23 -19 0 -10 39 -1 53 12 15 13 -7 18
-30 7z"/>
<path d="M4 410 c-1 -67 0 -70 22 -70 17 0 22 4 18 15 -5 11 1 15 20 15 34 0
66 32 61 62 -7 32 -32 48 -80 48 l-40 0 -1 -70z m76 15 c0 -18 -5 -25 -19 -25
-13 0 -18 7 -18 25 0 18 5 25 18 25 14 0 19 -7 19 -25z"/>
<path d="M195 463 c-4 -10 -15 -42 -25 -70 -19 -52 -18 -53 0 -53 10 0 22 5
25 10 3 6 17 10 31 10 13 0 24 -4 24 -10 0 -5 9 -10 20 -10 25 0 25 4 -4 76
-25 62 -56 83 -71 47z m31 -70 c-11 -11 -19 6 -11 24 8 17 8 17 12 0 3 -10 2
-21 -1 -24z"/>
<path d="M328 468 c-2 -7 -3 -38 -3 -68 0 -49 2 -55 22 -58 20 -3 22 0 18 35
l-3 38 31 -38 c18 -20 40 -37 50 -37 14 0 17 10 17 70 0 65 -2 70 -21 70 -18
0 -21 -5 -17 -30 7 -44 -8 -46 -34 -6 -23 36 -52 47 -60 24z"/>
<path d="M518 413 c-25 -68 -25 -68 -4 -71 11 -2 22 1 24 7 5 14 49 14 54 0 2
-6 13 -9 24 -7 21 3 21 4 -5 68 -19 48 -32 66 -47 68 -18 2 -25 -8 -46 -65z
m50 -22 c-15 -5 -19 4 -11 24 6 18 7 18 13 -1 4 -10 3 -21 -2 -23z"/>
<path d="M670 410 l0 -70 41 0 c52 0 74 13 87 49 8 23 6 35 -8 58 -15 26 -24
30 -69 32 l-51 2 0 -71z m76 32 c30 -20 18 -72 -16 -72 -17 0 -20 7 -20 40 0
39 11 49 36 32z"/>
<path d="M2332 464 c-21 -14 -21 -17 -7 -44 17 -33 20 -54 5 -45 -5 3 -10 -1
-10 -9 0 -34 46 -28 59 8 6 13 3 29 -7 44 -12 19 -13 25 -2 32 7 4 9 13 6 19
-9 15 -17 14 -44 -5z"/>
<path d="M2420 465 c0 -8 6 -15 14 -15 19 0 24 -17 19 -67 -3 -39 -1 -43 20
-43 21 0 23 4 22 55 -1 45 2 55 15 55 9 0 17 7 17 15 0 11 -13 15 -54 15 -40
0 -53 -4 -53 -15z"/>
<path d="M2560 410 l0 -70 50 0 c38 0 50 4 50 15 0 10 -10 15 -30 15 -20 0
-30 5 -30 15 0 10 10 15 28 15 19 0 29 5 29 15 0 10 -10 15 -29 15 -15 0 -28
5 -28 10 0 6 14 10 30 10 20 0 30 5 30 15 0 11 -12 15 -50 15 l-50 0 0 -70z"/>
<path d="M2706 472 c-2 -4 -4 -35 -5 -70 0 -55 2 -62 20 -62 14 0 19 7 19 25
0 14 4 25 8 25 5 0 14 -11 20 -25 7 -15 20 -25 32 -25 23 0 24 1 8 35 -9 19
-9 28 0 37 18 18 14 46 -7 58 -23 12 -88 14 -95 2z m72 -39 c2 -8 -5 -13 -17
-13 -12 0 -21 6 -21 16 0 18 31 15 38 -3z"/>
<path d="M2857 473 c-2 -5 -3 -35 -2 -68 0 -54 3 -60 22 -63 20 -3 22 0 20 67
-1 60 -4 71 -18 71 -10 0 -19 -3 -22 -7z"/>
<path d="M2975 463 c-4 -10 -15 -42 -25 -70 -19 -52 -18 -53 0 -53 10 0 22 5
25 10 3 6 17 10 31 10 13 0 24 -4 24 -10 0 -5 9 -10 20 -10 25 0 25 4 -4 76
-25 62 -56 83 -71 47z m31 -70 c-11 -11 -19 6 -11 24 8 17 8 17 12 0 3 -10 2
-21 -1 -24z"/>
<path d="M290 170 l0 -60 43 2 c36 1 38 2 10 5 -43 6 -47 40 -5 46 l27 4 -27
2 c-23 1 -28 6 -28 25 0 19 6 26 28 29 22 3 20 4 -10 6 l-38 1 0 -60z"/>
<path d="M380 170 c0 -33 4 -60 10 -60 6 0 10 27 10 60 0 33 -4 60 -10 60 -6
0 -10 -27 -10 -60z"/>
<path d="M540 207 c0 -18 -5 -23 -26 -22 -64 1 -55 -69 9 -71 l35 -2 1 59 c0
32 -4 59 -9 59 -6 0 -10 -10 -10 -23z m-5 -57 c0 -29 -32 -41 -41 -16 -9 24 4
48 23 44 12 -2 18 -12 18 -28z"/>
<path d="M670 170 c0 -33 4 -60 10 -60 6 0 10 27 10 60 0 33 -4 60 -10 60 -6
0 -10 -27 -10 -60z"/>
<path d="M725 220 c3 -5 8 -10 11 -10 2 0 4 5 4 10 0 6 -5 10 -11 10 -5 0 -7
-4 -4 -10z"/>
<path d="M850 219 c0 -5 5 -7 10 -4 6 3 10 8 10 11 0 2 -4 4 -10 4 -5 0 -10
-5 -10 -11z"/>
<path d="M1390 170 c0 -33 4 -60 10 -60 6 0 10 13 10 29 0 28 22 47 41 35 17
-10 9 -45 -13 -54 l-23 -9 22 0 c30 -1 48 32 32 60 -8 15 -18 20 -35 16 -20
-3 -24 0 -24 19 0 13 -4 24 -10 24 -6 0 -10 -27 -10 -60z"/>
<path d="M2620 207 c0 -18 -5 -23 -26 -22 -15 0 -32 -8 -38 -17 -17 -28 4 -53
48 -55 l36 -1 0 59 c0 33 -4 59 -10 59 -5 0 -10 -10 -10 -23z m-5 -57 c0 -16
-6 -26 -18 -28 -19 -4 -32 20 -23 44 9 25 41 13 41 -16z"/>
<path d="M2830 190 c0 -22 4 -40 8 -40 5 0 8 18 8 40 0 22 -4 40 -8 40 -4 0
-8 -18 -8 -40z"/>
<path d="M250 180 c0 -5 5 -10 10 -10 6 0 10 5 10 10 0 6 -4 10 -10 10 -5 0
-10 -4 -10 -10z"/>
<path d="M588 179 c-37 -21 -7 -70 40 -68 l27 1 -29 7 c-44 9 -45 31 -2 31 38
0 44 8 24 28 -15 15 -37 15 -60 1z m47 -9 c4 -6 -5 -10 -20 -10 -15 0 -24 4
-20 10 3 6 12 10 20 10 8 0 17 -4 20 -10z"/>
<path d="M720 150 c0 -22 5 -40 10 -40 6 0 10 18 10 40 0 22 -4 40 -10 40 -5
0 -10 -18 -10 -40z"/>
<path d="M772 178 c-28 -28 -5 -69 37 -67 l26 1 -25 7 c-18 5 -25 14 -25 31 0
17 7 26 25 31 l25 7 -25 1 c-15 1 -31 -4 -38 -11z"/>
<path d="M850 150 c0 -22 5 -40 10 -40 6 0 10 18 10 40 0 22 -4 40 -10 40 -5
0 -10 -18 -10 -40z"/>
<path d="M900 175 c-15 -18 -10 -45 12 -58 22 -15 68 6 68 31 0 39 -55 58 -80
27z m58 -21 c3 -22 -21 -39 -39 -28 -11 6 -12 38 -2 48 13 13 38 1 41 -20z"/>
<path d="M1004 178 c-4 -7 2 -18 14 -26 28 -18 29 -36 2 -29 -11 3 -20 1 -20
-4 0 -14 36 -10 50 5 9 12 7 17 -9 28 -26 16 -27 25 -3 31 13 4 12 5 -5 6 -12
0 -25 -4 -29 -11z"/>
<path d="M1082 178 c-28 -28 -3 -72 39 -66 30 4 47 33 33 56 -14 21 -55 27
-72 10z m53 -28 c0 -29 -32 -41 -41 -16 -9 24 4 48 23 44 12 -2 18 -12 18 -28z"/>
<path d="M1230 180 c-13 -9 -12 -13 8 -29 27 -24 28 -35 2 -28 -11 3 -20 1
-20 -4 0 -13 34 -11 48 3 17 17 15 25 -8 31 -25 6 -26 24 -2 30 12 3 13 5 2 6
-8 0 -22 -4 -30 -9z"/>
<path d="M1300 181 c0 -5 9 -7 20 -4 11 3 20 0 20 -6 0 -6 -9 -11 -19 -11 -20
0 -35 -25 -25 -41 3 -5 13 -9 22 -8 11 0 12 3 5 6 -18 7 -16 33 2 33 8 0 15
-9 15 -20 0 -11 5 -20 10 -20 17 0 12 67 -6 74 -23 9 -44 7 -44 -3z"/>
<path d="M1500 175 c-15 -18 -10 -45 12 -58 22 -15 68 6 68 31 0 39 -55 58
-80 27z m55 -26 c0 -17 -6 -24 -20 -24 -23 0 -33 34 -13 46 20 13 33 5 33 -22z"/>
<path d="M1600 148 c0 -21 5 -38 10 -38 6 0 10 13 10 30 0 17 7 33 18 39 14 9
13 10 -10 9 -25 -2 -28 -6 -28 -40z"/>
<path d="M1712 178 c-28 -28 0 -75 38 -65 15 4 20 0 20 -14 0 -10 5 -19 10
-19 6 0 10 24 10 53 l0 54 -33 1 c-19 1 -39 -4 -45 -10z m53 -28 c0 -16 -6
-26 -18 -28 -19 -4 -32 20 -23 44 9 25 41 13 41 -16z"/>
<path d="M1812 153 c3 -32 7 -38 28 -41 22 -2 23 -1 8 8 -11 7 -18 23 -18 40
0 17 -5 30 -11 30 -6 0 -9 -16 -7 -37z"/>
<path d="M1870 150 c0 -22 5 -40 10 -40 6 0 10 18 10 40 0 22 -4 40 -10 40 -5
0 -10 -18 -10 -40z"/>
<path d="M1922 178 c-28 -28 -5 -69 38 -67 l25 1 -24 7 c-37 10 -38 31 -2 31
20 0 31 5 31 14 0 25 -47 35 -68 14z m48 -8 c0 -5 -9 -10 -21 -10 -11 0 -17 5
-14 10 3 6 13 10 21 10 8 0 14 -4 14 -10z"/>
<path d="M2050 149 c0 -22 5 -39 10 -39 6 0 10 12 10 26 0 15 8 32 17 39 15
11 14 13 -10 13 -25 0 -27 -4 -27 -39z"/>
<path d="M2122 178 c-28 -28 -5 -69 38 -67 l25 1 -24 7 c-37 10 -38 31 -2 31
17 0 31 4 31 8 0 14 -23 32 -40 32 -9 0 -21 -5 -28 -12z m48 -8 c0 -5 -9 -10
-21 -10 -11 0 -17 5 -14 10 3 6 13 10 21 10 8 0 14 -4 14 -10z"/>
<path d="M2216 174 c-9 -8 -16 -19 -16 -24 0 -5 7 -16 16 -24 17 -17 54 -22
54 -7 0 5 -8 7 -19 4 -11 -3 -21 2 -24 11 -9 24 2 44 26 49 l22 4 -22 2 c-12
0 -29 -6 -37 -15z"/>
<path d="M2290 161 c0 -34 16 -49 53 -49 25 0 27 4 27 39 0 47 -17 52 -22 7
-2 -21 -8 -33 -18 -33 -10 0 -16 12 -18 33 -4 40 -22 43 -22 3z"/>
<path d="M2406 174 c-9 -8 -16 -19 -16 -24 0 -18 33 -40 58 -39 26 1 25 1 -5
10 -44 13 -42 29 2 29 33 0 35 2 25 20 -13 24 -43 26 -64 4z m49 -4 c4 -6 -5
-10 -20 -10 -15 0 -24 4 -20 10 3 6 12 10 20 10 8 0 17 -4 20 -10z"/>
<path d="M2490 149 c0 -22 5 -39 10 -39 6 0 10 12 10 26 0 15 8 32 17 39 15
11 14 13 -10 13 -25 0 -27 -4 -27 -39z"/>
<path d="M2688 183 c30 -6 28 -19 -4 -27 -30 -8 -30 -39 1 -43 11 -2 14 0 8 3
-18 8 -16 34 2 34 8 0 15 -9 15 -20 0 -11 5 -20 11 -20 6 0 9 16 7 38 -3 33
-6 37 -33 39 -20 1 -23 0 -7 -4z"/>
<path d="M2754 178 c-4 -7 2 -18 14 -26 28 -18 29 -36 2 -29 -11 3 -20 1 -20
-4 0 -12 31 -11 50 1 13 9 12 13 -7 29 -28 23 -28 28 -5 34 13 4 12 5 -5 6
-12 0 -25 -4 -29 -11z"/>
<path d="M250 122 c0 -23 3 -42 8 -42 9 0 9 66 0 76 -5 4 -8 -11 -8 -34z"/>
<path d="M2830 120 c0 -5 5 -10 10 -10 6 0 10 5 10 10 0 6 -4 10 -10 10 -5 0
-10 -4 -10 -10z"/>
</g>
</svg>
